<?xml version="1.0" standalone="no"?>
<!DOCTYPE svg PUBLIC "-//W3C//DTD SVG 20010904//EN"
 "http://www.w3.org/TR/2001/REC-SVG-20010904/DTD/svg10.dtd">
<svg version="1.0" xmlns="http://www.w3.org/2000/svg"
 width="105.000000pt" height="105.000000pt" viewBox="0 0 105.000000 105.000000"
 preserveAspectRatio="xMidYMid meet">

<g transform="translate(0.000000,105.000000) scale(0.100000,-0.100000)"
fill="#000000" stroke="none">
<path d="M645 991 c-81 -20 -135 -72 -157 -154 -11 -44 -10 -57 17 -163 16
-63 32 -119 35 -124 3 -6 55 4 122 21 129 34 174 63 208 130 25 47 26 128 4
175 -18 37 -74 91 -108 103 -37 14 -90 19 -121 12z m121 -82 c18 -11 39 -35
48 -53 47 -99 -18 -206 -125 -206 -133 0 -195 153 -100 244 50 48 114 53 177
15z"/>
</g>
</svg>
